/* XPM */
static char * top_right_active_xpm[] = {
"5 22 4 1",
" 	c None",
".	c #222222",
"+	c #111111",
"@	c #131313",
"     ",
"..   ",
"++.  ",
"+++. ",
"+++. ",
"+++@.",
"++++.",
"++++.",
"++++.",
"++++.",
"++++.",
"++++.",
"++++.",
"++++.",
"++++.",
"++++.",
"++++.",
"++++.",
"++++.",
"++++.",
"++++.",
"++++."};
